<svg xmlns="http://www.w3.org/2000/svg" width="980" height="680" viewBox="0 0 980 680"><rect width="980" height="680" fill="#181a19"/><g font-family="Segoe UI,Microsoft YaHei,sans-serif"><text x="46" y="55" font-size="27" fill="rgb(240, 242, 235)">Kivio / 折叠工作台</text><text x="46" y="84" font-size="12" fill="rgb(240, 242, 235)" opacity=".6">FOLDED WORKSPACE · 24 CUSTOM ICONS · REDESIGN 02</text><g transform="translate(40 132)"><svg x="40" y="0" xmlns="http://www.w3.org/2000/svg" width="40" height="40" viewBox="0 0 24 24" fill="none" stroke="currentColor" stroke-width="1.7" stroke-linecap="round" stroke-linejoin="round" color="rgb(240, 242, 235)"><path d="M6 4h7.2q.8 0 1.4.6l4.8 4.8q.6.6.6 1.4V18q0 2-2 2H6q-2 0-2-2V6q0-2 2-2Z M14 4.8V8q0 2 2 2h3.2M8 14h4m-2-2v4" /></svg><text x="60" y="70" text-anchor="middle" font-size="12" fill="rgb(240, 242, 235)">基础</text></g><g transform="translate(190 132)"><svg x="40" y="0" xmlns="http://www.w3.org/2000/svg" width="40" height="40" viewBox="0 0 24 24" fill="none" stroke="currentColor" stroke-width="1.7" stroke-linecap="round" stroke-linejoin="round" color="rgb(240, 242, 235)"><path d="M4.3 16.1 5.7 6.5q.2-1.5 1.7-1.3l3 .5q1.5.2 1.2 1.7L10 17.3q-.2 1.5-1.7 1.3l-2.7-.5q-1.5-.3-1.3-2ZM11 17.7l3.7-10.5q.5-1.5 1.9-.7l1.9 1.2q1.2.7.6 2L15 18.9q-.5 1.1-1.8.8L5 18.5M15 19.7l4.8-3.5" /></svg><text x="60" y="70" text-anchor="middle" font-size="12" fill="rgb(240, 242, 235)">模型</text></g><g transform="translate(340 132)"><svg x="40" y="0" xmlns="http://www.w3.org/2000/svg" width="40" height="40" viewBox="0 0 24 24" fill="none" stroke="currentColor" stroke-width="1.7" stroke-linecap="round" stroke-linejoin="round" color="rgb(240, 242, 235)"><rect x="3" y="6" width="18" height="12" rx="2.5" /><path d="M7 9v3q0 2 2 2h8m-3-3 2.3 2.3q.7.7 0 1.4L14 17M3.7 6.7 7 9" /></svg><text x="60" y="70" text-anchor="middle" font-size="12" fill="rgb(240, 242, 235)">快捷键</text></g><g transform="translate(490 132)"><svg x="40" y="0" xmlns="http://www.w3.org/2000/svg" width="40" height="40" viewBox="0 0 24 24" fill="none" stroke="currentColor" stroke-width="1.7" stroke-linecap="round" stroke-linejoin="round" color="rgb(240, 242, 235)"><rect x="3" y="4" width="7" height="13" rx="1.8" /><rect x="14" y="7" width="7" height="13" rx="1.8" /><path d="M6 8h1m-1 3h1M17 11h1m-1 3h1M8 21h2q2 0 2-2V4m-2 1 1.3-1.3q.7-.7 1.4 0L14 5" /></svg><text x="60" y="70" text-anchor="middle" font-size="12" fill="rgb(240, 242, 235)">翻译</text></g><g transform="translate(640 132)"><svg x="40" y="0" xmlns="http://www.w3.org/2000/svg" width="40" height="40" viewBox="0 0 24 24" fill="none" stroke="currentColor" stroke-width="1.7" stroke-linecap="round" stroke-linejoin="round" color="rgb(240, 242, 235)"><rect x="4" y="4" width="16" height="16" rx="2.8" /><path d="M4.5 14h7.7q1.8 0 1.8-1.8V4.5Z" /><circle cx="15" cy="16" r="2" /></svg><text x="60" y="70" text-anchor="middle" font-size="12" fill="rgb(240, 242, 235)">Lens</text></g><g transform="translate(790 132)"><svg x="40" y="0" xmlns="http://www.w3.org/2000/svg" width="40" height="40" viewBox="0 0 24 24" fill="none" stroke="currentColor" stroke-width="1.7" stroke-linecap="round" stroke-linejoin="round" color="rgb(240, 242, 235)"><path d="M4.6 4.7 19.2 11q1.8 1 0 2L4.6 19.3q-1.6.7-.9-1l3-5.5q.4-.8 0-1.6l-3-5.5q-.7-1.7.9-1Z M7 12h13M4 5l7.7 6q1.3 1 0 2L4 19" /></svg><text x="60" y="70" text-anchor="middle" font-size="12" fill="rgb(240, 242, 235)">Kivio Agent</text></g><g transform="translate(40 257)"><svg x="40" y="0" xmlns="http://www.w3.org/2000/svg" width="40" height="40" viewBox="0 0 24 24" fill="none" stroke="currentColor" stroke-width="1.7" stroke-linecap="round" stroke-linejoin="round" color="rgb(240, 242, 235)"><path d="M7 3h7q2 0 2 2v14q0 2-1.5.7l-2.4-2q-1.1-.9-2.2-.1l-3.4 2.5Q5 21 5 19V5q0-2 2-2Z M16 3.5l3.4 3.3q1.1 1.2-.5 1.2H16M8 7h5m-5 4h3" /></svg><text x="60" y="70" text-anchor="middle" font-size="12" fill="rgb(240, 242, 235)">记忆</text></g><g transform="translate(190 257)"><svg x="40" y="0" xmlns="http://www.w3.org/2000/svg" width="40" height="40" viewBox="0 0 24 24" fill="none" stroke="currentColor" stroke-width="1.7" stroke-linecap="round" stroke-linejoin="round" color="rgb(240, 242, 235)"><rect x="3" y="5" width="5" height="5" rx="1.5" /><rect x="8" y="10" width="5" height="5" rx="1.5" /><rect x="13" y="15" width="5" height="5" rx="1.5" /><path d="M5.5 2v3M10.5 2v8M15.5 2v13M3 22h18" /></svg><text x="60" y="70" text-anchor="middle" font-size="12" fill="rgb(240, 242, 235)">混音器</text></g><g transform="translate(340 257)"><svg x="40" y="0" xmlns="http://www.w3.org/2000/svg" width="40" height="40" viewBox="0 0 24 24" fill="none" stroke="currentColor" stroke-width="1.7" stroke-linecap="round" stroke-linejoin="round" color="rgb(240, 242, 235)"><rect x="3" y="7" width="18" height="13" rx="2.5" /><path d="M5 7V5q0-2 2-2h7q1 0 1.7.7L19 7M7 11l2.2 2.2q.8.8 0 1.6L7 17m6 0h4" /></svg><text x="60" y="70" text-anchor="middle" font-size="12" fill="rgb(240, 242, 235)">本地 CLI 管理</text></g><g transform="translate(490 257)"><svg x="40" y="0" xmlns="http://www.w3.org/2000/svg" width="40" height="40" viewBox="0 0 24 24" fill="none" stroke="currentColor" stroke-width="1.7" stroke-linecap="round" stroke-linejoin="round" color="rgb(240, 242, 235)"><path d="M7 3h8q2 0 2 2v3.2q0 .8-.6 1.4l-4.8 4.8q-.6.6-1.4.6H7q-2 0-2-2V5q0-2 2-2Z M16.5 9H13q-2 0-2 2v3.5M5 15v4q0 2 2 2h13m-3-3 3 3-3 0" /></svg><text x="60" y="70" text-anchor="middle" font-size="12" fill="rgb(240, 242, 235)">Hooks</text></g><g transform="translate(640 257)"><svg x="40" y="0" xmlns="http://www.w3.org/2000/svg" width="40" height="40" viewBox="0 0 24 24" fill="none" stroke="currentColor" stroke-width="1.7" stroke-linecap="round" stroke-linejoin="round" color="rgb(240, 242, 235)"><path d="M5 4h5q2 0 2 2v2q0 2 2 2h5q2 0 2 2v6q0 2-2 2H5q-2 0-2-2V6q0-2 2-2Z" /><rect x="16" y="3" width="5" height="5" rx="1.5" /><path d="M7 14h5m-5 3h8" /></svg><text x="60" y="70" text-anchor="middle" font-size="12" fill="rgb(240, 242, 235)">插件</text></g><g transform="translate(790 257)"><svg x="40" y="0" xmlns="http://www.w3.org/2000/svg" width="40" height="40" viewBox="0 0 24 24" fill="none" stroke="currentColor" stroke-width="1.7" stroke-linecap="round" stroke-linejoin="round" color="rgb(240, 242, 235)"><path d="M5 6h10q2 0 2 2v7q0 2-2 2H8.6q-.6 0-1 .4l-3.2 2.5Q3 21 3 19V8q0-2 2-2Z M7 3h12q2 0 2 2v8M6 9l2.8 2.1q1.2.9 2.4 0L14 9" /></svg><text x="60" y="70" text-anchor="middle" font-size="12" fill="rgb(240, 242, 235)">对话库</text></g><g transform="translate(40 382)"><svg x="40" y="0" xmlns="http://www.w3.org/2000/svg" width="40" height="40" viewBox="0 0 24 24" fill="none" stroke="currentColor" stroke-width="1.7" stroke-linecap="round" stroke-linejoin="round" color="rgb(240, 242, 235)"><path d="M4.5 4.5 8.3 3.2q.7-.2 1.4.1l4.6 2.4q.7.3 1.4.1l3.8-1.3Q21 4 21 5.6v12q0 1.4-1.3 1.8l-4 1.3q-.7.3-1.4-.1l-4.6-2.3q-.7-.3-1.4-.1l-3.8 1.3Q3 20 3 18.4v-12q0-1.4 1.5-1.9Z M9 3.5v14m6-11v14" /><circle cx="15" cy="12" r="2" /></svg><text x="60" y="70" text-anchor="middle" font-size="12" fill="rgb(240, 242, 235)">网络搜索</text></g><g transform="translate(190 382)"><svg x="40" y="0" xmlns="http://www.w3.org/2000/svg" width="40" height="40" viewBox="0 0 24 24" fill="none" stroke="currentColor" stroke-width="1.7" stroke-linecap="round" stroke-linejoin="round" color="rgb(240, 242, 235)"><path d="M4.5 18H7q1 0 1-1v-3q0-1 1-1h3q1 0 1-1V9q0-1 1-1h3q1 0 1-1V4.5q0-1.5 1.5-1.5T21 4.5v15q0 1.5-1.5 1.5h-15Q3 21 3 19.5T4.5 18Z M6 18v3m7-8v8m5-13v13" /></svg><text x="60" y="70" text-anchor="middle" font-size="12" fill="rgb(240, 242, 235)">用量统计</text></g><g transform="translate(340 382)"><svg x="40" y="0" xmlns="http://www.w3.org/2000/svg" width="40" height="40" viewBox="0 0 24 24" fill="none" stroke="currentColor" stroke-width="1.7" stroke-linecap="round" stroke-linejoin="round" color="rgb(240, 242, 235)"><defs><mask id="cut-fold-about" maskUnits="userSpaceOnUse" x="0" y="0" width="24" height="24"><rect width="24" height="24" fill="white" stroke="none"/><g stroke="none"><circle cx="12" cy="12" r="2.5" fill="black"/></g></mask></defs><g mask="url(#cut-fold-about)"><rect x="3" y="5" width="18" height="14" rx="2.8" /><path d="M3.8 5.8 10.5 12q1.5 1.4 3 0l6.7-6.2" /></g><circle cx="12" cy="12" r="2.5" fill="none"/></svg><text x="60" y="70" text-anchor="middle" font-size="12" fill="rgb(240, 242, 235)">关于</text></g><g transform="translate(490 382)"><svg x="40" y="0" xmlns="http://www.w3.org/2000/svg" width="40" height="40" viewBox="0 0 24 24" fill="none" stroke="currentColor" stroke-width="1.7" stroke-linecap="round" stroke-linejoin="round" color="rgb(240, 242, 235)"><rect x="3" y="8" width="18" height="12" rx="2.5" /><path d="M3.5 8 10.6 3.1q1.4-1 2.8 0L20.5 8M3.7 8.7l6.9 4.4q1.4.9 2.8 0l6.9-4.4M12 3v6" /></svg><text x="60" y="70" text-anchor="middle" font-size="12" fill="rgb(240, 242, 235)">新建聊天</text></g><g transform="translate(640 382)"><svg x="40" y="0" xmlns="http://www.w3.org/2000/svg" width="40" height="40" viewBox="0 0 24 24" fill="none" stroke="currentColor" stroke-width="1.7" stroke-linecap="round" stroke-linejoin="round" color="rgb(240, 242, 235)"><rect x="4" y="4" width="16" height="16" rx="2.8" /><path d="M4 15h5q2 0 2 2v3" /><circle cx="12" cy="9" r="3" /><path d="m14.1 11.1 2.9 2.9" /></svg><text x="60" y="70" text-anchor="middle" font-size="12" fill="rgb(240, 242, 235)">搜索</text></g><g transform="translate(790 382)"><svg x="40" y="0" xmlns="http://www.w3.org/2000/svg" width="40" height="40" viewBox="0 0 24 24" fill="none" stroke="currentColor" stroke-width="1.7" stroke-linecap="round" stroke-linejoin="round" color="rgb(240, 242, 235)"><path d="M4.2 7.8 7.8 4.2q1.2-1.2 2.4 0l3.6 3.6q1.2 1.2 0 2.4l-3.6 3.6q-1.2 1.2-2.4 0l-3.6-3.6q-1.2-1.2 0-2.4ZM10.2 13.8l3.6-3.6q1.2-1.2 2.4 0l3.6 3.6q1.2 1.2 0 2.4l-3.6 3.6q-1.2 1.2-2.4 0l-3.6-3.6q-1.2-1.2 0-2.4ZM9 3l4.8 4.8q1.2 1.2 2.4 0L21 3M3 9l4.8 4.8q1.2 1.2 0 2.4L3 21" /></svg><text x="60" y="70" text-anchor="middle" font-size="12" fill="rgb(240, 242, 235)">扩展</text></g><g transform="translate(40 507)"><svg x="40" y="0" xmlns="http://www.w3.org/2000/svg" width="40" height="40" viewBox="0 0 24 24" fill="none" stroke="currentColor" stroke-width="1.7" stroke-linecap="round" stroke-linejoin="round" color="rgb(240, 242, 235)"><path d="M4.1 13.7 7 10.2q1-1.2 2-.1l2 2.5q1 1.2 2 0l2-2.5q1-1.1 2 .1l2.9 3.5q1.1 1.3-.4 2.3l-6.1 4.1q-1.4.9-2.8 0L4.5 16q-1.5-1-.4-2.3Z M8 9V7q0-2 2-2h4q2 0 2 2v2" /><circle cx="10" cy="7" r="0.6" fill="currentColor" stroke="none"/><circle cx="14" cy="7" r="0.6" fill="currentColor" stroke="none"/></svg><text x="60" y="70" text-anchor="middle" font-size="12" fill="rgb(240, 242, 235)">助手</text></g><g transform="translate(190 507)"><svg x="40" y="0" xmlns="http://www.w3.org/2000/svg" width="40" height="40" viewBox="0 0 24 24" fill="none" stroke="currentColor" stroke-width="1.7" stroke-linecap="round" stroke-linejoin="round" color="rgb(240, 242, 235)"><path d="M7 3h10q2 0 2 2v10q0 2-2 2h-7q-1 0-1.7.7l-1.6 1.6Q5 21 5 19V5q0-2 2-2Z M5 17h2q2 0 2 2v1.5" /><rect x="9" y="7" width="6" height="6" rx="1.6" /></svg><text x="60" y="70" text-anchor="middle" font-size="12" fill="rgb(240, 242, 235)">Skill</text></g><g transform="translate(340 507)"><svg x="40" y="0" xmlns="http://www.w3.org/2000/svg" width="40" height="40" viewBox="0 0 24 24" fill="none" stroke="currentColor" stroke-width="1.7" stroke-linecap="round" stroke-linejoin="round" color="rgb(240, 242, 235)"><path d="M4.5 5h4Q10 5 10 6.5v3Q10 11 8.5 11H8q-1 0-1 1v5.5Q7 19 5.5 19h-1Q3 19 3 17.5v-11Q3 5 4.5 5ZM19.5 5h-4Q14 5 14 6.5v3q0 1.5 1.5 1.5h.5q1 0 1 1v5.5q0 1.5 1.5 1.5h1q1.5 0 1.5-1.5v-11Q21 5 19.5 5ZM7 15h10" /></svg><text x="60" y="70" text-anchor="middle" font-size="12" fill="rgb(240, 242, 235)">MCP</text></g><g transform="translate(490 507)"><svg x="40" y="0" xmlns="http://www.w3.org/2000/svg" width="40" height="40" viewBox="0 0 24 24" fill="none" stroke="currentColor" stroke-width="1.7" stroke-linecap="round" stroke-linejoin="round" color="rgb(240, 242, 235)"><path d="M4.4 6.3 7.5 4.7Q9 4 9.3 5.7l2.4 11.8q.3 1.5-1.1 2l-3.2 1q-1.4.5-1.7-1L3.3 8.3q-.3-1.4 1.1-2ZM9 4l4.5-.8q1.5-.2 1.8 1.3l2.4 12q.3 1.5-1.2 1.7L12 19M15 3l4.5.7Q21 4 21 5.5v11q0 1.5-1.5 1.5H18M6 10l3-1m3-1 3-.5m3-.5h1" /></svg><text x="60" y="70" text-anchor="middle" font-size="12" fill="rgb(240, 242, 235)">知识库</text></g><g transform="translate(640 507)"><svg x="40" y="0" xmlns="http://www.w3.org/2000/svg" width="40" height="40" viewBox="0 0 24 24" fill="none" stroke="currentColor" stroke-width="1.7" stroke-linecap="round" stroke-linejoin="round" color="rgb(240, 242, 235)"><path d="M6 4h12q2 0 2 2v7q0 1-.7 1.7l-5.6 5.6q-.7.7-1.7.7H6q-2 0-2-2V6q0-2 2-2Z M13 20v-4q0-2 2-2h4M8 8h8m-8 4h4" /></svg><text x="60" y="70" text-anchor="middle" font-size="12" fill="rgb(240, 242, 235)">笔记</text></g><g transform="translate(790 507)"><svg x="40" y="0" xmlns="http://www.w3.org/2000/svg" width="40" height="40" viewBox="0 0 24 24" fill="none" stroke="currentColor" stroke-width="1.7" stroke-linecap="round" stroke-linejoin="round" color="rgb(240, 242, 235)"><rect x="2" y="5" width="7" height="10" rx="1.9" /><rect x="9" y="9" width="6" height="10" rx="1.9" /><rect x="15" y="5" width="7" height="10" rx="1.9" /><path d="M5 5V4q0-2 2-2h9q2 0 2 2v1M18 19v1q0 2-2 2H7q-2 0-2-2v-1" /></svg><text x="60" y="70" text-anchor="middle" font-size="12" fill="rgb(240, 242, 235)">自动化</text></g></g></svg>